HIERARCHY
ROOT Hips
{
	OFFSET 0.00000 0.00000 0.00000
	CHANNELS 6 Xposition Yposition Zposition Zrotation Yrotation Xrotation 
	JOINT LHipJoint
	{
		OFFSET 0 0 0
		CHANNELS 3 Zrotation Yrotation Xrotation
		JOINT LeftHip
		{
			OFFSET 1.58161 -1.81893 0.78828
			CHANNELS 3 Zrotation Yrotation Xrotation
			JOINT LeftKnee
			{
				OFFSET 2.53374 -6.96141 0.00000
				CHANNELS 3 Zrotation Yrotation Xrotation
				JOINT LeftAnkle
				{
					OFFSET 2.63509 -7.23986 0.00000
					CHANNELS 3 Zrotation Yrotation Xrotation
					JOINT LeftToe
					{
						OFFSET 0.14115 -0.38781 2.05350
						CHANNELS 3 Zrotation Yrotation Xrotation
						End Site
						{
							OFFSET 0.00000 -0.00000 1.05543
						}
					}
				}
			}
		}
	}
	JOINT RHipJoint
	{
		OFFSET 0 0 0
		CHANNELS 3 Zrotation Yrotation Xrotation
		JOINT RightHip
		{
			OFFSET -1.11138 -1.81893 0.78828
			CHANNELS 3 Zrotation Yrotation Xrotation
			JOINT RightKnee
			{
				OFFSET -2.58392 -7.09926 0.00000
				CHANNELS 3 Zrotation Yrotation Xrotation
				JOINT RightAnkle
				{
					OFFSET -2.66423 -7.31992 0.00000
					CHANNELS 3 Zrotation Yrotation Xrotation
					JOINT RightToe
					{
						OFFSET -0.18831 -0.51739 2.12114
						CHANNELS 3 Zrotation Yrotation Xrotation
						End Site
						{
							OFFSET -0.00000 -0.00000 1.09845
						}
					}
				}
			}
		}
	}
	JOINT lowerback
	{
		OFFSET 0 0 0
		CHANNELS 3 Zrotation Yrotation Xrotation
		JOINT Chest
		{
			OFFSET -0.01511 1.97958 -0.08829
			CHANNELS 3 Zrotation Yrotation Xrotation
			JOINT Chest2
			{
				OFFSET 0.08344 1.97334 -0.04330
				CHANNELS 3 Zrotation Yrotation Xrotation
				JOINT lowerneck
				{
					OFFSET 0 0 0
					CHANNELS 3 Zrotation Yrotation Xrotation
					JOINT Neck
					{
						OFFSET 0.00559 1.76246 0.31246
						CHANNELS 3 Zrotation Yrotation Xrotation
						JOINT Head
						{
							OFFSET -0.07011 1.80354 -0.30524
							CHANNELS 3 Zrotation Yrotation Xrotation
							End Site
							{
								OFFSET -0.02385 1.83547 -0.13906
							}
						}
					}
				}
				JOINT LeftCollar
				{
					OFFSET 0 0 0
					CHANNELS 3 Zrotation Yrotation Xrotation
					JOINT LeftShoulder
					{
						OFFSET 3.20667 1.30156 -0.60240
CHANNELS 3 Zrotation Xrotation Yrotation
						JOINT LeftElbow
						{
OFFSET 0 -4.956630 0.000000
CHANNELS 3 Zrotation Xrotation Yrotation
							JOINT LeftWrist
							{
OFFSET 0 -3.381770 0.000000
CHANNELS 3 Zrotation Xrotation Yrotation
								JOINT lhand
								{
									OFFSET 0 0 0
CHANNELS 3 Zrotation Xrotation Yrotation
									JOINT LFingers
									{
OFFSET 0 -0.662910 0.000000
CHANNELS 3 Zrotation Xrotation Yrotation
										End Site
										{
OFFSET 0 -0.534450 0.000000
										}
									}
								}
								JOINT LThumb
								{
OFFSET 0 0.000000 0.000000
CHANNELS 3 Zrotation Xrotation Yrotation
									End Site
									{
OFFSET 0 -0.542610 0.542610
									}
								}
							}
						}
					}
				}
				JOINT RightCollar
				{
					OFFSET 0 0 0
					CHANNELS 3 Zrotation Yrotation Xrotation
					JOINT RightShoulder
					{
						OFFSET -3.06877 1.34672 -0.60964
CHANNELS 3 Zrotation Xrotation Yrotation
						JOINT RightElbow
						{
OFFSET 0 -5.083650 0.000000
CHANNELS 3 Zrotation Xrotation Yrotation
							JOINT RightWrist
							{
OFFSET 0 -3.359840 0.000000
CHANNELS 3 Zrotation Xrotation Yrotation
								JOINT rhand
								{
									OFFSET 0 0 0
CHANNELS 3 Zrotation Xrotation Yrotation
									JOINT RFingers
									{
OFFSET 0 -0.820760 0.000000
CHANNELS 3 Zrotation Xrotation Yrotation
										End Site
										{
OFFSET 0 -0.661720 0.000000
										}
									}
								}
								JOINT RThumb
								{
OFFSET 0 0.000000 0.000000
CHANNELS 3 Zrotation Xrotation Yrotation
									End Site
									{
OFFSET 0 -0.671820 0.671820
									}
								}
							}
						}
					}
				}
			}
		}
	}
}
MOTION
Frames: 12
Frame Time: 0.008333333333333333
1.099200 17.803900 -7.970700 -7.701300 -6.600900 8.963500 0.000000 0.000000 0.000000 -11.517400 -4.829100 -22.112200 4.149800 12.357200 37.007400 1.193800 -0.162500 -20.612300 0.083800 -1.866800 -5.137800 0.000000 0.000000 0.000000 23.927400 9.072200 -15.399900 -2.848000 -10.444900 30.429800 -0.965800 0.290300 -18.484400 -0.012700 -0.727500 1.999400 -0.269100 0.262200 -4.924100 5.218700 0.199700 0.280200 5.591900 0.050400 3.037400 -0.734600 -1.333500 -20.295800 -5.091100 0.267400 37.479300 -2.123200 -0.779900 17.117800 -0.000000 0.000000 0.000000 0.302300 -4.727700 -34.087500 12.687200 -20.827200 2.340900 13.347000 7.066700 -29.965000 0.000000 0.000000 0.000000 -7.125000 0.000000 0.000000 -20.391100 59.452300 7.385400 -0.000000 0.000000 0.000000 -4.778300 -3.172300 29.887000 -15.309600 -24.575700 -3.353700 -21.422500 -15.803900 -11.665900 0.000000 0.000000 0.000000 7.125000 0.000000 -0.000000 4.011300 17.493200 2.626500
1.094721 17.810447 -7.974232 -7.731709 -6.551367 9.028366 0.000000 0.000000 0.000000 -11.465025 -4.808167 -22.217037 4.146957 12.353410 36.994048 1.187253 -0.183088 -20.548037 0.099995 -2.038140 -5.611073 0.000000 0.000000 0.000000 23.962288 8.946086 -15.455204 -2.820262 -10.398210 30.276120 -0.953654 0.435280 -18.320038 -0.019075 -0.889364 2.444504 -0.184162 0.294245 -5.002921 5.255311 0.232951 0.304234 5.586215 0.066853 3.103644 -0.673610 -1.126669 -20.333272 -5.113842 0.584839 37.743330 -2.092964 -0.646119 17.283885 0.000000 0.000000 0.000000 0.312982 -4.853297 -34.313885 12.792640 -20.982603 2.378545 13.534535 6.913192 -29.915984 0.000000 0.000000 0.000000 -7.125000 0.000000 0.000000 -20.157909 59.449371 7.295208 0.000000 0.000000 0.000000 -4.857552 -3.321587 29.952038 -15.343110 -24.621873 -3.367569 -21.396485 -15.770562 -11.590869 0.000000 0.000000 0.000000 7.125000 0.000000 0.000000 4.027064 17.575381 2.629601
1.089590 17.812584 -7.976969 -7.784671 -6.504726 9.099666 0.000000 0.000000 0.000000 -11.367831 -4.900797 -22.279730 4.143392 12.348824 36.977515 1.177598 -0.135510 -20.479653 0.104696 -2.086736 -5.745319 0.000000 0.000000 0.000000 24.024790 8.918788 -15.519617 -2.809656 -10.380291 30.217208 -0.952784 0.574043 -18.267866 -0.031305 -1.134502 3.119047 -0.068069 0.325568 -5.116657 5.285416 0.262082 0.333907 5.556168 0.081355 3.196057 -0.560429 -0.945573 -20.217496 -5.215449 0.863243 37.835678 -2.105377 -0.529976 17.317540 0.000000 0.000000 0.000000 0.328290 -5.013303 -34.529500 12.857310 -21.077791 2.401732 13.830717 6.677060 -29.756586 0.000000 0.000000 0.000000 -7.125000 0.000000 0.000000 -19.729471 59.367794 7.094055 0.000000 0.000000 0.000000 -4.905070 -3.443260 30.021992 -15.385439 -24.680335 -3.385269 -21.341844 -15.704479 -11.519525 0.000000 0.000000 0.000000 7.125000 0.000000 0.000000 4.062997 17.656116 2.646003
1.082817 17.813351 -7.978735 -7.803626 -6.411661 9.114002 0.000000 0.000000 0.000000 -11.294593 -5.066615 -22.250848 4.138869 12.342976 36.956282 1.175878 -0.149306 -20.459854 0.086159 -1.885384 -5.189253 0.000000 0.000000 0.000000 24.074939 8.901259 -15.515015 -2.801808 -10.367068 30.173774 -0.956472 0.550170 -18.310880 -0.025491 -1.016680 2.794758 -0.002974 0.343254 -5.210208 5.307379 0.276283 0.378157 5.545584 0.087419 3.293602 -0.445658 -0.779284 -20.123763 -5.312599 1.120375 37.985743 -2.123394 -0.422239 17.388739 0.000000 0.000000 0.000000 0.338174 -5.151566 -34.712607 12.915333 -21.163014 2.422616 14.177992 6.418371 -29.448650 0.000000 0.000000 0.000000 -7.125000 0.000000 0.000000 -19.142772 59.157084 6.777208 0.000000 0.000000 0.000000 -4.939669 -3.513421 30.102530 -15.434425 -24.747813 -3.405749 -21.366089 -15.677110 -11.557977 0.000000 0.000000 0.000000 7.125000 0.000000 0.000000 4.047286 17.613110 2.639537
1.074609 17.814090 -7.979979 -7.792500 -6.273939 9.076264 0.000000 0.000000 0.000000 -11.249628 -5.208279 -22.180358 4.134539 12.337315 36.935873 1.183463 -0.274941 -20.485091 0.063173 -1.616361 -4.446747 0.000000 0.000000 0.000000 24.116050 8.821075 -15.481088 -2.797276 -10.359430 30.148768 -0.962143 0.458508 -18.394590 -0.012684 -0.702202 1.929742 0.030332 0.363231 -5.280759 5.300041 0.296125 0.445302 5.522732 0.095721 3.401366 -0.271894 -0.634349 -20.109690 -5.411966 1.326392 38.183427 -2.166937 -0.327628 17.505520 0.000000 0.000000 0.000000 0.401408 -5.287933 -34.950411 13.000477 -21.287854 2.453482 14.429034 6.140849 -29.208674 0.000000 0.000000 0.000000 -7.125000 0.000000 0.000000 -18.708039 58.987668 6.538647 0.000000 0.000000 0.000000 -4.925916 -3.575792 30.142887 -15.472171 -24.799774 -3.421538 -21.485714 -15.636223 -11.645629 0.000000 0.000000 0.000000 7.125000 0.000000 0.000000 3.966468 17.509140 2.595520
1.065982 17.815161 -7.980915 -7.789934 -6.124625 9.021542 0.000000 0.000000 0.000000 -11.202075 -5.251685 -22.131343 4.130841 12.332472 36.918471 1.194080 -0.465163 -20.516788 0.054434 -1.504422 -4.137943 0.000000 0.000000 0.000000 24.175490 8.701970 -15.450496 -2.796531 -10.358161 30.144623 -0.967191 0.391131 -18.464863 -0.005454 -0.478396 1.314444 0.104837 0.398686 -5.237369 5.254511 0.341243 0.463351 5.434883 0.120059 3.391927 -0.024648 -0.502934 -20.114202 -5.508542 1.481963 38.395171 -2.233731 -0.242083 17.633873 0.000000 0.000000 0.000000 0.549592 -5.331762 -35.254778 13.129103 -21.476005 2.500457 14.515384 5.874907 -29.223822 0.000000 0.000000 0.000000 -7.125000 0.000000 0.000000 -18.628391 59.021419 6.524890 0.000000 0.000000 0.000000 -4.839684 -3.577156 30.130542 -15.487286 -24.820587 -3.427870 -21.629352 -15.564579 -11.712357 0.000000 0.000000 0.000000 7.125000 0.000000 0.000000 3.868192 17.425134 2.538077
1.057697 17.816251 -7.981569 -7.817007 -5.999452 8.974399 0.000000 0.000000 0.000000 -11.137102 -5.184728 -22.127452 4.127595 12.328277 36.903245 1.198264 -0.626645 -20.502520 0.062573 -1.613285 -4.438020 0.000000 0.000000 0.000000 24.261878 8.621586 -15.412050 -2.796617 -10.358334 30.145018 -0.969149 0.344214 -18.498922 -0.004849 -0.450405 1.237537 0.248924 0.447427 -5.023651 5.191208 0.410635 0.377555 5.285257 0.162018 3.177096 0.217604 -0.372279 -20.050171 -5.568758 1.622190 38.612598 -2.285438 -0.157365 17.747691 0.000000 0.000000 0.000000 0.734516 -5.211097 -35.538852 13.284436 -21.702549 2.557573 14.471995 5.678109 -29.507871 0.000000 0.000000 0.000000 -7.125000 0.000000 0.000000 -18.875699 59.279975 6.733426 0.000000 0.000000 0.000000 -4.716151 -3.465845 30.093521 -15.481577 -24.812679 -3.425467 -21.710482 -15.507645 -11.754090 0.000000 0.000000 0.000000 7.125000 0.000000 0.000000 3.812894 17.373293 2.506023
1.048993 17.816491 -7.982436 -7.819168 -5.905118 8.916286 0.000000 0.000000 0.000000 -11.108950 -5.059779 -22.136204 4.125573 12.325664 36.893974 1.190068 -0.720252 -20.402396 0.072330 -1.735346 -4.774856 0.000000 0.000000 0.000000 24.317065 8.580846 -15.349306 -2.796673 -10.358455 30.145450 -0.968912 0.267791 -18.521883 -0.004621 -0.439125 1.206519 0.337742 0.495226 -4.888175 5.159263 0.476491 0.344540 5.202583 0.198653 3.061502 0.327978 -0.259875 -19.948746 -5.580449 1.766117 38.780273 -2.287393 -0.083140 17.824339 0.000000 0.000000 0.000000 0.826989 -5.183438 -35.718673 13.409907 -21.884881 2.604110 14.351232 5.571049 -29.879864 0.000000 0.000000 0.000000 -7.125000 0.000000 0.000000 -19.272109 59.603019 7.030601 0.000000 0.000000 0.000000 -4.667772 -3.442559 30.040422 -15.465869 -24.791008 -3.418890 -21.736721 -15.499699 -11.828222 0.000000 0.000000 0.000000 7.125000 0.000000 0.000000 3.797347 17.291828 2.502532
1.040207 17.816233 -7.983470 -7.795306 -5.822507 8.890099 0.000000 0.000000 0.000000 -11.093186 -5.007576 -22.153519 4.124798 12.324630 36.890356 1.186277 -0.810617 -20.342096 0.073191 -1.745252 -4.802249 0.000000 0.000000 0.000000 24.333260 8.404424 -15.381007 -2.795898 -10.357163 30.141143 -0.969257 0.350661 -18.498452 -0.005224 -0.468500 1.287321 0.350405 0.518916 -4.870257 5.161072 0.507761 0.351432 5.199223 0.214503 3.055816 0.381818 -0.150214 -19.843995 -5.610513 1.935734 38.922841 -2.281449 -0.009745 17.888516 0.000000 0.000000 0.000000 0.832416 -5.239001 -35.749426 13.510436 -22.030550 2.641669 14.211679 5.454928 -29.890287 0.000000 0.000000 0.000000 -7.125000 0.000000 0.000000 -19.427167 59.580621 7.079358 0.000000 0.000000 0.000000 -4.701368 -3.447125 30.098397 -15.499379 -24.837094 -3.432931 -21.685724 -15.534070 -11.834597 0.000000 0.000000 0.000000 7.125000 0.000000 0.000000 3.833097 17.289760 2.526394
1.032324 17.815974 -7.983374 -7.778672 -5.759094 8.899223 0.000000 0.000000 0.000000 -11.068236 -5.000925 -22.180772 4.123495 12.322919 36.884103 1.193028 -0.938929 -20.362810 0.067352 -1.673542 -4.604218 0.000000 0.000000 0.000000 24.344184 8.216858 -15.458636 -2.795198 -10.355946 30.137137 -0.966062 0.432778 -18.441139 -0.003117 -0.353765 0.972087 0.339050 0.520771 -4.877788 5.190890 0.509968 0.346728 5.237575 0.215295 3.054724 0.433399 -0.023386 -19.772449 -5.680708 2.149998 39.051404 -2.284766 0.074717 17.957963 0.000000 0.000000 0.000000 0.794852 -5.238245 -35.714073 13.616086 -22.183146 2.681486 14.230993 5.344604 -29.596379 0.000000 0.000000 0.000000 -7.125000 0.000000 0.000000 -19.192815 59.308555 6.864894 0.000000 0.000000 0.000000 -4.782624 -3.423381 30.234600 -15.553895 -24.911943 -3.455857 -21.573740 -15.527257 -11.759054 0.000000 0.000000 0.000000 7.125000 0.000000 0.000000 3.908676 17.380453 2.568627
1.025124 17.816023 -7.981580 -7.760316 -5.744710 8.894146 0.000000 0.000000 0.000000 -11.065799 -4.948680 -22.188386 4.121687 12.320557 36.875626 1.197366 -1.017295 -20.377629 0.065277 -1.648187 -4.534291 0.000000 0.000000 0.000000 24.350786 8.172614 -15.454110 -2.794509 -10.354740 30.133358 -0.962973 0.401069 -18.421088 -0.000987 -0.166963 0.458841 0.318520 0.535022 -4.871047 5.227693 0.529182 0.350798 5.289619 0.224238 3.053003 0.474947 0.094427 -19.737818 -5.768052 2.362159 39.168795 -2.294762 0.153893 18.031918 0.000000 0.000000 0.000000 0.751398 -5.238710 -35.735358 13.718726 -22.331149 2.720400 14.253728 5.253546 -29.584158 0.000000 0.000000 0.000000 -7.125000 0.000000 0.000000 -19.159509 59.302401 6.849082 0.000000 0.000000 0.000000 -4.876954 -3.424923 30.354248 -15.559587 -24.919794 -3.458254 -21.518212 -15.495770 -11.687002 0.000000 0.000000 0.000000 7.125000 0.000000 0.000000 3.945024 17.462275 2.585555
1.018765 17.816243 -7.979406 -7.744130 -5.762349 8.881644 0.000000 0.000000 0.000000 -11.072521 -4.883118 -22.183623 4.120515 12.319067 36.870311 1.195983 -1.034882 -20.360784 0.069339 -1.698067 -4.671973 0.000000 0.000000 0.000000 24.356431 8.207590 -15.403603 -2.792297 -10.350917 30.120899 -0.961129 0.337472 -18.423792 -0.000052 -0.054497 0.149793 0.330139 0.576221 -4.844293 5.240037 0.584279 0.349647 5.299455 0.252177 3.031874 0.516874 0.183687 -19.684708 -5.835607 2.520355 39.266375 -2.305481 0.214792 18.086207 0.000000 0.000000 0.000000 0.727432 -5.268815 -35.762605 13.787457 -22.430039 2.746497 14.202353 5.230659 -29.841701 0.000000 0.000000 0.000000 -7.125000 0.000000 0.000000 -19.402533 59.532660 7.048606 0.000000 0.000000 0.000000 -4.941901 -3.431804 30.438104 -15.527773 -24.876195 -3.444885 -21.524988 -15.460553 -11.620245 0.000000 0.000000 0.000000 7.125000 0.000000 0.000000 3.938022 17.532726 2.574873
